<svg id="visual" viewBox="0 0 900 600" width="900" height="600" xmlns="http://www.w3.org/2000/svg" xmlns:xlink="http://www.w3.org/1999/xlink" version="1.1"><rect x="0" y="0" width="900" height="600" fill="#450000"></rect><path d="M0 431L16.7 429.2C33.3 427.3 66.7 423.7 100 429.7C133.3 435.7 166.7 451.3 200 460.5C233.3 469.7 266.7 472.3 300 472.3C333.3 472.3 366.7 469.7 400 459C433.3 448.3 466.7 429.7 500 421.5C533.3 413.3 566.7 415.7 600 420C633.3 424.3 666.7 430.7 700 431.5C733.3 432.3 766.7 427.7 800 427.5C833.3 427.3 866.7 431.7 883.3 433.8L900 436L900 601L883.3 601C866.7 601 833.3 601 800 601C766.7 601 733.3 601 700 601C666.7 601 633.3 601 600 601C566.7 601 533.3 601 500 601C466.7 601 433.3 601 400 601C366.7 601 333.3 601 300 601C266.7 601 233.3 601 200 601C166.7 601 133.3 601 100 601C66.7 601 33.3 601 16.7 601L0 601Z" fill="#8B0000" stroke-linecap="round" stroke-linejoin="miter"></path></svg>